<?xml version="1.0" standalone="yes"?>

<svg version="1.1" viewBox="0.0 0.0 464.04461942257217 159.55905511811022" fill="none" stroke="none" stroke-linecap="square" stroke-miterlimit="10" xmlns="http://www.w3.org/2000/svg" xmlns:xlink="http://www.w3.org/1999/xlink"><clipPath id="p.0"><path d="m0 0l464.04462 0l0 159.55905l-464.04462 0l0 -159.55905z" clip-rule="nonzero"></path></clipPath><g clip-path="url(#p.0)"><path fill="#000000" fill-opacity="0.0" d="m0 0l464.04462 0l0 159.55905l-464.04462 0z" fill-rule="nonzero"></path><path fill="#000000" fill-opacity="0.0" d="m2.8923883 52.535717l85.19685 0l0 52.535435l-85.19685 0z" fill-rule="nonzero"></path><path stroke="#000000" stroke-width="1.0" stroke-linejoin="round" stroke-linecap="butt" d="m2.8923883 52.535717l85.19685 0l0 52.535435l-85.19685 0z" fill-rule="nonzero"></path><path fill="#000000" d="m32.814026 74.69009l1.796875 0.453125q-0.5625 2.21875 -2.03125 3.390625q-1.4687481 1.15625 -3.593748 1.15625q-2.203125 0 -3.578125 -0.890625q-1.375 -0.90625 -2.09375 -2.59375q-0.71875 -1.703125 -0.71875 -3.65625q0 -2.125 0.796875 -3.703125q0.8125 -1.578125 2.3125 -2.390625q1.5 -0.828125 3.296875 -0.828125q2.046875 0 3.437498 1.046875q1.390625 1.03125 1.9375 2.90625l-1.765625 0.421875q-0.46875 -1.484375 -1.3749981 -2.15625q-0.90625 -0.6875 -2.265625 -0.6875q-1.5625 0 -2.625 0.75q-1.046875 0.75 -1.484375 2.03125q-0.421875 1.265625 -0.421875 2.609375q0 1.734375 0.5 3.03125q0.515625 1.28125 1.578125 1.921875q1.078125 0.640625 2.3125 0.640625q1.515625 0 2.5625 -0.859375q1.0468731 -0.875 1.4218731 -2.59375zm3.5198212 4.765625l0 -13.59375l1.671875 0l0 13.59375l-1.671875 0zm4.191696 -11.6875l0 -1.90625l1.671875 0l0 1.90625l-1.671875 0zm0 11.6875l0 -9.859375l1.671875 0l0 9.859375l-1.671875 0zm10.879196 -3.171875l1.71875 0.21875q-0.40625 1.5 -1.515625 2.34375q-1.09375 0.828125 -2.8125 0.828125q-2.15625 0 -3.421875 -1.328125q-1.265625 -1.328125 -1.265625 -3.734375q0 -2.484375 1.265625 -3.859375q1.28125 -1.375 3.328125 -1.375q1.984375 0 3.234375 1.34375q1.25 1.34375 1.25 3.796875q0 0.140625 -0.015625 0.4375l-7.34375 0q0.09375 1.625 0.921875 2.484375q0.828125 0.859375 2.0625 0.859375q0.90625 0 1.546875 -0.46875q0.65625 -0.484375 1.046875 -1.546875zm-5.484375 -2.703125l5.5 0q-0.109375 -1.234375 -0.625 -1.859375q-0.796875 -0.96875 -2.078125 -0.96875q-1.140625 0 -1.9375 0.78125q-0.78125 0.765625 -0.859375 2.046875zm9.110092 5.875l0 -9.859375l1.5 0l0 1.40625q1.09375 -1.625 3.140625 -1.625q0.890625 0 1.640625 0.328125q0.75 0.3125 1.109375 0.84375q0.375 0.515625 0.53125 1.21875q0.09375 0.46875 0.09375 1.625l0 6.0625l-1.671875 0l0 -6.0q0 -1.015625 -0.203125 -1.515625q-0.1875 -0.515625 -0.6875 -0.8125q-0.5 -0.296875 -1.171875 -0.296875q-1.0625 0 -1.84375 0.671875q-0.765625 0.671875 -0.765625 2.578125l0 5.375l-1.671875 0zm14.031967 -1.5l0.234375 1.484375q-0.703125 0.140625 -1.265625 0.140625q-0.90625 0 -1.40625 -0.28125q-0.5 -0.296875 -0.703125 -0.75q-0.203125 -0.46875 -0.203125 -1.984375l0 -5.65625l-1.234375 0l0 -1.3125l1.234375 0l0 -2.4375l1.65625 -1.0l0 3.4375l1.6875 0l0 1.3125l-1.6875 0l0 5.75q0 0.71875 0.078125 0.921875q0.09375 0.203125 0.296875 0.328125q0.203125 0.125 0.578125 0.125q0.265625 0 0.734375 -0.078125z" fill-rule="nonzero"></path><path fill="#000000" fill-opacity="0.0" d="m174.13649 52.535717l85.19685 0l0 52.535435l-85.19685 0z" fill-rule="nonzero"></path><path stroke="#000000" stroke-width="1.0" stroke-linejoin="round" stroke-linecap="butt" d="m174.13649 52.535717l85.19685 0l0 52.535435l-85.19685 0z" fill-rule="nonzero"></path><path fill="#000000" d="m189.633 79.45571l0 -13.59375l2.71875 0l3.21875 9.625q0.4375 1.34375 0.640625 2.015625q0.234375 -0.75 0.734375 -2.1875l3.25 -9.453125l2.421875 0l0 13.59375l-1.734375 0l0 -11.390625l-3.953125 11.390625l-1.625 0l-3.9375 -11.578125l0 11.578125l-1.734375 0zm21.822052 -1.21875q-0.9375 0.796875 -1.796875 1.125q-0.859375 0.3125 -1.84375 0.3125q-1.609375 0 -2.484375 -0.78125q-0.875 -0.796875 -0.875 -2.03125q0 -0.734375 0.328125 -1.328125q0.328125 -0.59375 0.859375 -0.953125q0.53125 -0.359375 1.203125 -0.546875q0.5 -0.140625 1.484375 -0.25q2.03125 -0.25 2.984375 -0.578125q0 -0.34375 0 -0.4375q0 -1.015625 -0.46875 -1.4375q-0.640625 -0.5625 -1.90625 -0.5625q-1.171875 0 -1.734375 0.40625q-0.5625 0.40625 -0.828125 1.46875l-1.640625 -0.234375q0.234375 -1.046875 0.734375 -1.6875q0.515625 -0.640625 1.46875 -0.984375q0.96875 -0.359375 2.25 -0.359375q1.265625 0 2.046875 0.296875q0.78125 0.296875 1.15625 0.75q0.375 0.453125 0.515625 1.140625q0.09375 0.421875 0.09375 1.53125l0 2.234375q0 2.328125 0.09375 2.953125q0.109375 0.609375 0.4375 1.171875l-1.75 0q-0.265625 -0.515625 -0.328125 -1.21875zm-0.140625 -3.71875q-0.90625 0.359375 -2.734375 0.625q-1.03125 0.140625 -1.453125 0.328125q-0.421875 0.1875 -0.65625 0.546875q-0.234375 0.359375 -0.234375 0.796875q0 0.671875 0.5 1.125q0.515625 0.4375 1.484375 0.4375q0.96875 0 1.71875 -0.421875q0.75 -0.4375 1.109375 -1.15625q0.265625 -0.578125 0.265625 -1.671875l0 -0.609375zm3.4069672 2.0l1.65625 -0.265625q0.140625 1.0 0.765625 1.53125q0.640625 0.515625 1.78125 0.515625q1.15625 0 1.703125 -0.46875q0.5625 -0.46875 0.5625 -1.09375q0 -0.5625 -0.484375 -0.890625q-0.34375 -0.21875 -1.703125 -0.5625q-1.84375 -0.46875 -2.5625 -0.796875q-0.703125 -0.34375 -1.078125 -0.9375q-0.359375 -0.609375 -0.359375 -1.328125q0 -0.65625 0.296875 -1.21875q0.3125 -0.5625 0.828125 -0.9375q0.390625 -0.28125 1.0625 -0.484375q0.671875 -0.203125 1.4375 -0.203125q1.171875 0 2.046875 0.34375q0.875 0.328125 1.28125 0.90625q0.421875 0.5625 0.578125 1.515625l-1.625 0.21875q-0.109375 -0.75 -0.65625 -1.171875q-0.53125 -0.4375 -1.5 -0.4375q-1.15625 0 -1.640625 0.390625q-0.484375 0.375 -0.484375 0.875q0 0.328125 0.203125 0.59375q0.203125 0.265625 0.640625 0.4375q0.25 0.09375 1.46875 0.4375q1.765625 0.46875 2.46875 0.765625q0.703125 0.296875 1.09375 0.875q0.40625 0.578125 0.40625 1.4375q0 0.828125 -0.484375 1.578125q-0.484375 0.734375 -1.40625 1.140625q-0.921875 0.390625 -2.078125 0.390625q-1.921875 0 -2.9375 -0.796875q-1.0 -0.796875 -1.28125 -2.359375zm13.65625 1.4375l0.234375 1.484375q-0.703125 0.140625 -1.265625 0.140625q-0.90625 0 -1.40625 -0.28125q-0.5 -0.296875 -0.703125 -0.75q-0.203125 -0.46875 -0.203125 -1.984375l0 -5.65625l-1.234375 0l0 -1.3125l1.234375 0l0 -2.4375l1.65625 -1.0l0 3.4375l1.6875 0l0 1.3125l-1.6875 0l0 5.75q0 0.71875 0.078125 0.921875q0.09375 0.203125 0.296875 0.328125q0.203125 0.125 0.578125 0.125q0.265625 0 0.734375 -0.078125zm8.277054 -1.671875l1.71875 0.21875q-0.40625 1.5 -1.515625 2.34375q-1.09375 0.828125 -2.8125 0.828125q-2.15625 0 -3.421875 -1.328125q-1.265625 -1.328125 -1.265625 -3.734375q0 -2.484375 1.265625 -3.859375q1.28125 -1.375 3.328125 -1.375q1.984375 0 3.234375 1.34375q1.25 1.34375 1.25 3.796875q0 0.140625 -0.015625 0.4375l-7.34375 0q0.09375 1.625 0.921875 2.484375q0.828125 0.859375 2.0625 0.859375q0.90625 0 1.546875 -0.46875q0.65625 -0.484375 1.046875 -1.546875zm-5.484375 -2.703125l5.5 0q-0.109375 -1.234375 -0.625 -1.859375q-0.796875 -0.96875 -2.078125 -0.96875q-1.140625 0 -1.9375 0.78125q-0.78125 0.765625 -0.859375 2.046875zm9.094467 5.875l0 -9.859375l1.5 0l0 1.5q0.578125 -1.046875 1.0625 -1.375q0.484375 -0.34375 1.078125 -0.34375q0.84375 0 1.71875 0.546875l-0.578125 1.546875q-0.609375 -0.359375 -1.234375 -0.359375q-0.546875 0 -0.984375 0.328125q-0.421875 0.328125 -0.609375 0.90625q-0.28125 0.890625 -0.28125 1.953125l0 5.15625l-1.671875 0z" fill-rule="nonzero"></path><path fill="#000000" fill-opacity="0.0" d="m376.51443 105.07115l85.19684 0l0 52.53543l-85.19684 0z" fill-rule="nonzero"></path><path stroke="#000000" stroke-width="1.0" stroke-linejoin="round" stroke-linecap="butt" d="m376.51443 105.07115l85.19684 0l0 52.53543l-85.19684 0z" fill-rule="nonzero"></path><path fill="#000000" d="m392.89984 131.99115l-3.609375 -13.59375l1.84375 0l2.0625 8.90625q0.34375 1.40625 0.578125 2.78125q0.515625 -2.171875 0.609375 -2.515625l2.59375 -9.171875l2.171875 0l1.953125 6.875q0.734375 2.5625 1.046875 4.8125q0.265625 -1.28125 0.6875 -2.953125l2.125 -8.734375l1.8125 0l-3.734375 13.59375l-1.734375 0l-2.859375 -10.359375q-0.359375 -1.296875 -0.421875 -1.59375q-0.21875 0.9375 -0.40625 1.59375l-2.890625 10.359375l-1.828125 0zm14.389893 -4.921875q0 -2.734375 1.53125 -4.0625q1.265625 -1.09375 3.09375 -1.09375q2.03125 0 3.3125 1.34375q1.296875 1.328125 1.296875 3.671875q0 1.90625 -0.578125 3.0q-0.5625 1.078125 -1.65625 1.6875q-1.078125 0.59375 -2.375 0.59375q-2.0625 0 -3.34375 -1.328125q-1.28125 -1.328125 -1.28125 -3.8125zm1.71875 0q0 1.890625 0.828125 2.828125q0.828125 0.9375 2.078125 0.9375q1.25 0 2.0625 -0.9375q0.828125 -0.953125 0.828125 -2.890625q0 -1.828125 -0.828125 -2.765625q-0.828125 -0.9375 -2.0625 -0.9375q-1.25 0 -2.078125 0.9375q-0.828125 0.9375 -0.828125 2.828125zm9.266357 4.921875l0 -9.859375l1.5 0l0 1.5q0.578125 -1.046875 1.0625 -1.375q0.484375 -0.34375 1.078125 -0.34375q0.84375 0 1.71875 0.546875l-0.578125 1.546875q-0.609375 -0.359375 -1.234375 -0.359375q-0.546875 0 -0.984375 0.328125q-0.421875 0.328125 -0.609375 0.90625q-0.28125 0.890625 -0.28125 1.953125l0 5.15625l-1.671875 0zm6.243927 0l0 -13.59375l1.671875 0l0 7.75l3.953125 -4.015625l2.15625 0l-3.765625 3.65625l4.140625 6.203125l-2.0625 0l-3.25 -5.03125l-1.171875 1.125l0 3.90625l-1.671875 0zm16.0625 -3.171875l1.71875 0.21875q-0.40625 1.5 -1.515625 2.34375q-1.09375 0.828125 -2.8125 0.828125q-2.15625 0 -3.421875 -1.328125q-1.265625 -1.328125 -1.265625 -3.734375q0 -2.484375 1.265625 -3.859375q1.28125 -1.375 3.328125 -1.375q1.984375 0 3.234375 1.34375q1.25 1.34375 1.25 3.796875q0 0.140625 -0.015625 0.4375l-7.34375 0q0.09375 1.625 0.921875 2.484375q0.828125 0.859375 2.0625 0.859375q0.90625 0 1.546875 -0.46875q0.65625 -0.484375 1.046875 -1.546875zm-5.484375 -2.703125l5.5 0q-0.109375 -1.234375 -0.625 -1.859375q-0.796875 -0.96875 -2.078125 -0.96875q-1.140625 0 -1.9375 0.78125q-0.78125 0.765625 -0.859375 2.046875zm9.094452 5.875l0 -9.859375l1.5 0l0 1.5q0.578125 -1.046875 1.0625 -1.375q0.484375 -0.34375 1.078125 -0.34375q0.84375 0 1.71875 0.546875l-0.578125 1.546875q-0.609375 -0.359375 -1.234375 -0.359375q-0.546875 0 -0.984375 0.328125q-0.421875 0.328125 -0.609375 0.90625q-0.28125 0.890625 -0.28125 1.953125l0 5.15625l-1.671875 0z" fill-rule="nonzero"></path><path fill="#000000" fill-opacity="0.0" d="m376.51443 2.8372704E-4l85.19684 0l0 52.535435l-85.19684 0z" fill-rule="nonzero"></path><path stroke="#000000" stroke-width="1.0" stroke-linejoin="round" stroke-linecap="butt" d="m376.51443 2.8372704E-4l85.19684 0l0 52.535435l-85.19684 0z" fill-rule="nonzero"></path><path fill="#000000" d="m392.89984 26.920282l-3.609375 -13.59375l1.84375 0l2.0625 8.90625q0.34375 1.40625 0.578125 2.78125q0.515625 -2.171875 0.609375 -2.515625l2.59375 -9.171875l2.171875 0l1.953125 6.875q0.734375 2.5625 1.046875 4.8125q0.265625 -1.28125 0.6875 -2.953125l2.125 -8.734375l1.8125 0l-3.734375 13.59375l-1.734375 0l-2.859375 -10.359375q-0.359375 -1.296875 -0.421875 -1.59375q-0.21875 0.9375 -0.40625 1.59375l-2.890625 10.359375l-1.828125 0zm14.389893 -4.921875q0 -2.734375 1.53125 -4.0625q1.265625 -1.09375 3.09375 -1.09375q2.03125 0 3.3125 1.34375q1.296875 1.328125 1.296875 3.671875q0 1.90625 -0.578125 3.0q-0.5625 1.078125 -1.65625 1.6875q-1.078125 0.59375 -2.375 0.59375q-2.0625 0 -3.34375 -1.328125q-1.28125 -1.328125 -1.28125 -3.8125zm1.71875 0q0 1.890625 0.828125 2.828125q0.828125 0.9375 2.078125 0.9375q1.25 0 2.0625 -0.9375q0.828125 -0.953125 0.828125 -2.890625q0 -1.828125 -0.828125 -2.765625q-0.828125 -0.9375 -2.0625 -0.9375q-1.25 0 -2.078125 0.9375q-0.828125 0.9375 -0.828125 2.828125zm9.266357 4.921875l0 -9.859375l1.5 0l0 1.5q0.578125 -1.046875 1.0625 -1.375q0.484375 -0.34375 1.078125 -0.34375q0.84375 0 1.71875 0.546875l-0.578125 1.546875q-0.609375 -0.359375 -1.234375 -0.359375q-0.546875 0 -0.984375 0.328125q-0.421875 0.328125 -0.609375 0.90625q-0.28125 0.890625 -0.28125 1.953125l0 5.15625l-1.671875 0zm6.243927 0l0 -13.59375l1.671875 0l0 7.75l3.953125 -4.015625l2.15625 0l-3.765625 3.65625l4.140625 6.203125l-2.0625 0l-3.25 -5.03125l-1.171875 1.125l0 3.90625l-1.671875 0zm16.0625 -3.171875l1.71875 0.21875q-0.40625 1.5 -1.515625 2.34375q-1.09375 0.828125 -2.8125 0.828125q-2.15625 0 -3.421875 -1.328125q-1.265625 -1.328125 -1.265625 -3.734375q0 -2.484375 1.265625 -3.859375q1.28125 -1.375 3.328125 -1.375q1.984375 0 3.234375 1.34375q1.25 1.34375 1.25 3.796875q0 0.140625 -0.015625 0.4375l-7.34375 0q0.09375 1.625 0.921875 2.484375q0.828125 0.859375 2.0625 0.859375q0.90625 0 1.546875 -0.46875q0.65625 -0.484375 1.046875 -1.546875zm-5.484375 -2.703125l5.5 0q-0.109375 -1.234375 -0.625 -1.859375q-0.796875 -0.96875 -2.078125 -0.96875q-1.140625 0 -1.9375 0.78125q-0.78125 0.765625 -0.859375 2.046875zm9.094452 5.875l0 -9.859375l1.5 0l0 1.5q0.578125 -1.046875 1.0625 -1.375q0.484375 -0.34375 1.078125 -0.34375q0.84375 0 1.71875 0.546875l-0.578125 1.546875q-0.609375 -0.359375 -1.234375 -0.359375q-0.546875 0 -0.984375 0.328125q-0.421875 0.328125 -0.609375 0.90625q-0.28125 0.890625 -0.28125 1.953125l0 5.15625l-1.671875 0z" fill-rule="nonzero"></path><path fill="#000000" fill-opacity="0.0" d="m88.08924 78.80344l86.04725 0" fill-rule="nonzero"></path><path stroke="#595959" stroke-width="1.0" stroke-linejoin="round" stroke-linecap="butt" d="m88.08924 78.80343l80.04725 0" fill-rule="evenodd"></path><path fill="#595959" stroke="#595959" stroke-width="1.0" stroke-linecap="butt" d="m168.13649 80.45516l4.538086 -1.6517334l-4.538086 -1.6517258z" fill-rule="evenodd"></path><path fill="#000000" fill-opacity="0.0" d="m259.33334 78.80344l117.19684 -52.53544" fill-rule="nonzero"></path><path stroke="#595959" stroke-width="1.0" stroke-linejoin="round" stroke-linecap="butt" d="m259.33334 78.80343l111.72177 -50.08113" fill-rule="evenodd"></path><path fill="#595959" stroke="#595959" stroke-width="1.0" stroke-linecap="butt" d="m371.73074 30.22952l3.4654236 -3.363531l-4.8167114 0.34907722z" fill-rule="evenodd"></path><path fill="#000000" fill-opacity="0.0" d="m259.33334 78.80344l117.19684 52.53543" fill-rule="nonzero"></path><path stroke="#595959" stroke-width="1.0" stroke-linejoin="round" stroke-linecap="butt" d="m259.33334 78.80343l111.72177 50.081154" fill-rule="evenodd"></path><path fill="#595959" stroke="#595959" stroke-width="1.0" stroke-linecap="butt" d="m370.37946 130.3918l4.8167114 0.34907532l-3.4654236 -3.3635254z" fill-rule="evenodd"></path><path fill="#000000" fill-opacity="0.0" d="m419.11285 52.535717l0 52.535435" fill-rule="nonzero"></path><path stroke="#595959" stroke-width="1.0" stroke-linejoin="round" stroke-linecap="butt" d="m419.11285 58.535713l0 40.53544" fill-rule="evenodd"></path><path fill="#595959" stroke="#595959" stroke-width="1.0" stroke-linecap="butt" d="m420.7646 58.535713l-1.6517334 -4.5380974l-1.6517334 4.5380974z" fill-rule="evenodd"></path><path fill="#595959" stroke="#595959" stroke-width="1.0" stroke-linecap="butt" d="m417.46112 99.07115l1.6517334 4.538101l1.6517334 -4.538101z" fill-rule="evenodd"></path><path fill="#000000" fill-opacity="0.0" d="m367.75854 23.496063l104.346436 0l0 26.70866l-104.346436 0z" fill-rule="nonzero"></path><path fill="#000000" d="m383.38214 41.565437l1.875 -6.65625l0.625 0l-1.859375 6.65625l-0.640625 0zm3.1853943 -5.640625l0 -0.90625l0.78125 0l0 0.90625l-0.78125 0zm-1.0 7.34375l0.140625 -0.671875q0.234375 0.0625 0.375 0.0625q0.25 0 0.359375 -0.171875q0.125 -0.15625 0.125 -0.796875l0 -4.90625l0.78125 0l0 4.921875q0 0.859375 -0.21875 1.203125q-0.28125 0.4375 -0.953125 0.4375q-0.3125 0 -0.609375 -0.078125zm2.7755432 -4.140625q0 -1.296875 0.71875 -1.921875q0.609375 -0.515625 1.46875 -0.515625q0.96875 0 1.578125 0.625q0.609375 0.625 0.609375 1.734375q0 0.90625 -0.28125 1.421875q-0.265625 0.515625 -0.78125 0.8125q-0.515625 0.28125 -1.125 0.28125q-0.984375 0 -1.59375 -0.625q-0.59375 -0.640625 -0.59375 -1.8125zm0.8125 0q0 0.890625 0.390625 1.34375q0.390625 0.4375 0.984375 0.4375q0.59375 0 0.984375 -0.4375q0.390625 -0.453125 0.390625 -1.375q0 -0.859375 -0.390625 -1.3125q-0.390625 -0.453125 -0.984375 -0.453125q-0.59375 0 -0.984375 0.453125q-0.390625 0.4375 -0.390625 1.34375zm5.406616 2.328125l-0.734375 0l0 -6.4375l0.78125 0l0 2.296875q0.5 -0.625 1.28125 -0.625q0.4375 0 0.8125 0.171875q0.390625 0.171875 0.640625 0.484375q0.25 0.3125 0.390625 0.765625q0.140625 0.4375 0.140625 0.9375q0 1.203125 -0.59375 1.859375q-0.59375 0.65625 -1.421875 0.65625q-0.828125 0 -1.296875 -0.6875l0 0.578125zm-0.015625 -2.375q0 0.84375 0.234375 1.21875q0.375 0.609375 1.0 0.609375q0.53125 0 0.90625 -0.453125q0.375 -0.453125 0.375 -1.34375q0 -0.90625 -0.359375 -1.34375q-0.359375 -0.4375 -0.875 -0.4375q-0.53125 0 -0.90625 0.453125q-0.375 0.453125 -0.375 1.296875zm4.687866 -1.390625l0 -0.90625l0.90625 0l0 0.90625l-0.90625 0zm0 3.765625l0 -0.90625l0.90625 0l0 0.90625l-0.90625 0zm3.2322998 0l-1.421875 -4.671875l0.8125 0l0.75 2.703125l0.265625 1.0q0.015625 -0.078125 0.25 -0.96875l0.734375 -2.734375l0.8125 0l0.703125 2.71875l0.234375 0.890625l0.265625 -0.90625l0.796875 -2.703125l0.765625 0l-1.453125 4.671875l-0.8125 0l-0.75 -2.796875l-0.1875 -0.796875l-0.9375 3.59375l-0.828125 0zm5.5802307 -2.328125q0 -1.296875 0.71875 -1.921875q0.609375 -0.515625 1.46875 -0.515625q0.96875 0 1.578125 0.625q0.609375 0.625 0.609375 1.734375q0 0.90625 -0.28125 1.421875q-0.265625 0.515625 -0.78125 0.8125q-0.515625 0.28125 -1.125 0.28125q-0.984375 0 -1.59375 -0.625q-0.59375 -0.640625 -0.59375 -1.8125zm0.8125 0q0 0.890625 0.390625 1.34375q0.390625 0.4375 0.984375 0.4375q0.59375 0 0.984375 -0.4375q0.390625 -0.453125 0.390625 -1.375q0 -0.859375 -0.390625 -1.3125q-0.390625 -0.453125 -0.984375 -0.453125q-0.59375 0 -0.984375 0.453125q-0.390625 0.4375 -0.390625 1.34375zm4.656616 2.328125l0 -4.671875l0.71875 0l0 0.71875q0.265625 -0.5 0.5 -0.65625q0.234375 -0.15625 0.515625 -0.15625q0.390625 0 0.8125 0.25l-0.28125 0.734375q-0.28125 -0.171875 -0.578125 -0.171875q-0.25 0 -0.46875 0.15625q-0.203125 0.15625 -0.296875 0.4375q-0.125 0.421875 -0.125 0.921875l0 2.4375l-0.796875 0zm3.1219482 0l0 -6.4375l0.796875 0l0 3.671875l1.875 -1.90625l1.015625 0l-1.78125 1.734375l1.96875 2.9375l-0.984375 0l-1.53125 -2.390625l-0.5625 0.546875l0 1.84375l-0.796875 0zm7.8515625 -1.5l0.828125 0.09375q-0.203125 0.71875 -0.734375 1.125q-0.515625 0.390625 -1.328125 0.390625q-1.015625 0 -1.625 -0.625q-0.59375 -0.640625 -0.59375 -1.78125q0 -1.171875 0.609375 -1.8125q0.609375 -0.65625 1.578125 -0.65625q0.9375 0 1.515625 0.640625q0.59375 0.625 0.59375 1.78125q0 0.078125 0 0.21875l-3.484375 0q0.046875 0.765625 0.4375 1.171875q0.390625 0.40625 0.984375 0.40625q0.4375 0 0.734375 -0.21875q0.3125 -0.234375 0.484375 -0.734375zm-2.59375 -1.28125l2.609375 0q-0.046875 -0.59375 -0.296875 -0.890625q-0.375 -0.453125 -0.984375 -0.453125q-0.546875 0 -0.921875 0.375q-0.359375 0.359375 -0.40625 0.96875zm4.578491 2.78125l0 -4.671875l0.71875 0l0 0.71875q0.265625 -0.5 0.5 -0.65625q0.234375 -0.15625 0.515625 -0.15625q0.390625 0 0.8125 0.25l-0.28125 0.734375q-0.28125 -0.171875 -0.578125 -0.171875q-0.25 0 -0.46875 0.15625q-0.203125 0.15625 -0.296875 0.4375q-0.125 0.421875 -0.125 0.921875l0 2.4375l-0.796875 0zm2.5282288 0.109375l1.875 -6.65625l0.625 0l-1.859375 6.65625l-0.640625 0zm4.9197693 -0.8125l0.109375 0.6875q-0.34375 0.078125 -0.59375 0.078125q-0.4375 0 -0.671875 -0.140625q-0.234375 -0.140625 -0.34375 -0.359375q-0.09375 -0.21875 -0.09375 -0.921875l0 -2.6875l-0.578125 0l0 -0.625l0.578125 0l0 -1.15625l0.796875 -0.46875l0 1.625l0.796875 0l0 0.625l-0.796875 0l0 2.71875q0 0.34375 0.03125 0.4375q0.046875 0.09375 0.140625 0.15625q0.09375 0.0625 0.265625 0.0625q0.140625 0 0.359375 -0.03125zm3.9041748 0.125q-0.4375 0.375 -0.84375 0.53125q-0.40625 0.15625 -0.875 0.15625q-0.765625 0 -1.1875 -0.375q-0.40625 -0.375 -0.40625 -0.96875q0 -0.34375 0.15625 -0.625q0.15625 -0.28125 0.40625 -0.453125q0.25 -0.171875 0.5625 -0.265625q0.234375 -0.046875 0.703125 -0.109375q0.96875 -0.109375 1.421875 -0.28125q0 -0.15625 0 -0.203125q0 -0.484375 -0.21875 -0.671875q-0.3125 -0.28125 -0.90625 -0.28125q-0.5625 0 -0.828125 0.203125q-0.265625 0.1875 -0.390625 0.6875l-0.765625 -0.09375q0.09375 -0.5 0.328125 -0.796875q0.25 -0.3125 0.703125 -0.46875q0.46875 -0.171875 1.0625 -0.171875q0.609375 0 0.96875 0.140625q0.375 0.140625 0.546875 0.359375q0.1875 0.203125 0.25 0.53125q0.046875 0.203125 0.046875 0.71875l0 1.0625q0 1.09375 0.046875 1.390625q0.046875 0.296875 0.203125 0.5625l-0.828125 0q-0.125 -0.25 -0.15625 -0.578125zm-0.0625 -1.765625q-0.4375 0.171875 -1.296875 0.296875q-0.484375 0.078125 -0.6875 0.171875q-0.203125 0.078125 -0.3125 0.25q-0.109375 0.171875 -0.109375 0.375q0 0.3125 0.234375 0.53125q0.234375 0.203125 0.703125 0.203125q0.453125 0 0.8125 -0.203125q0.359375 -0.203125 0.53125 -0.546875q0.125 -0.265625 0.125 -0.78125l0 -0.296875zm1.8909912 0.953125l0.78125 -0.125q0.0625 0.46875 0.359375 0.71875q0.3125 0.25 0.84375 0.25q0.546875 0 0.8125 -0.21875q0.265625 -0.21875 0.265625 -0.515625q0 -0.28125 -0.234375 -0.421875q-0.171875 -0.109375 -0.8125 -0.28125q-0.875 -0.21875 -1.21875 -0.375q-0.328125 -0.15625 -0.5 -0.4375q-0.171875 -0.28125 -0.171875 -0.625q0 -0.3125 0.140625 -0.578125q0.140625 -0.265625 0.390625 -0.453125q0.1875 -0.125 0.5 -0.21875q0.328125 -0.09375 0.6875 -0.09375q0.546875 0 0.953125 0.15625q0.421875 0.15625 0.625 0.421875q0.203125 0.265625 0.28125 0.71875l-0.78125 0.109375q-0.046875 -0.359375 -0.3125 -0.5625q-0.25 -0.203125 -0.703125 -0.203125q-0.546875 0 -0.78125 0.1875q-0.234375 0.171875 -0.234375 0.421875q0 0.15625 0.09375 0.265625q0.09375 0.140625 0.3125 0.21875q0.109375 0.046875 0.6875 0.203125q0.84375 0.21875 1.171875 0.359375q0.34375 0.140625 0.53125 0.421875q0.1875 0.265625 0.1875 0.671875q0 0.40625 -0.234375 0.75q-0.234375 0.34375 -0.671875 0.546875q-0.421875 0.1875 -0.984375 0.1875q-0.90625 0 -1.390625 -0.375q-0.46875 -0.390625 -0.59375 -1.125zm4.9765625 1.390625l0 -6.4375l0.796875 0l0 3.671875l1.875 -1.90625l1.015625 0l-1.78125 1.734375l1.96875 2.9375l-0.984375 0l-1.53125 -2.390625l-0.5625 0.546875l0 1.84375l-0.796875 0zm4.8828125 -3.765625l0 -0.90625l0.90625 0l0 0.90625l-0.90625 0zm0 3.765625l0 -0.90625l0.90625 0l0 0.90625l-0.90625 0zm2.1541443 -3.171875q0 -1.140625 0.234375 -1.84375q0.234375 -0.703125 0.6875 -1.078125q0.46875 -0.375 1.171875 -0.375q0.53125 0 0.921875 0.21875q0.390625 0.203125 0.640625 0.59375q0.25 0.390625 0.390625 0.953125q0.15625 0.5625 0.15625 1.53125q0 1.125 -0.234375 1.828125q-0.234375 0.6875 -0.703125 1.078125q-0.453125 0.375 -1.171875 0.375q-0.921875 0 -1.453125 -0.671875q-0.640625 -0.796875 -0.640625 -2.609375zm0.8125 0q0 1.578125 0.359375 2.109375q0.375 0.515625 0.921875 0.515625q0.546875 0 0.921875 -0.515625q0.375 -0.53125 0.375 -2.109375q0 -1.59375 -0.375 -2.109375q-0.375 -0.53125 -0.921875 -0.53125q-0.546875 0 -0.875 0.453125q-0.40625 0.59375 -0.40625 2.1875z" fill-rule="nonzero"></path><path fill="#000000" fill-opacity="0.0" d="m367.75854 128.1916l104.346436 0l0 26.708664l-104.346436 0z" fill-rule="nonzero"></path><path fill="#000000" d="m392.45065 146.26097l1.875 -6.65625l0.625 0l-1.859375 6.65625l-0.640625 0zm3.1853943 -5.640625l0 -0.90625l0.78125 0l0 0.90625l-0.78125 0zm-1.0 7.34375l0.140625 -0.671875q0.234375 0.0625 0.375 0.0625q0.25 0 0.359375 -0.171875q0.125 -0.15625 0.125 -0.796875l0 -4.90625l0.78125 0l0 4.921875q0 0.859375 -0.21875 1.203125q-0.28125 0.4375 -0.953125 0.4375q-0.3125 0 -0.609375 -0.078125zm2.7755432 -4.140625q0 -1.296875 0.71875 -1.921875q0.609375 -0.515625 1.46875 -0.515625q0.96875 0 1.578125 0.625q0.609375 0.625 0.609375 1.734375q0 0.90625 -0.28125 1.421875q-0.265625 0.515625 -0.78125 0.8125q-0.515625 0.28125 -1.125 0.28125q-0.984375 0 -1.59375 -0.625q-0.59375 -0.640625 -0.59375 -1.8125zm0.8125 0q0 0.890625 0.390625 1.34375q0.390625 0.4375 0.984375 0.4375q0.59375 0 0.984375 -0.4375q0.390625 -0.453125 0.390625 -1.375q0 -0.859375 -0.390625 -1.3125q-0.390625 -0.453125 -0.984375 -0.453125q-0.59375 0 -0.984375 0.453125q-0.390625 0.4375 -0.390625 1.34375zm5.406616 2.328125l-0.734375 0l0 -6.4375l0.78125 0l0 2.296875q0.5 -0.625 1.28125 -0.625q0.4375 0 0.8125 0.171875q0.390625 0.171875 0.640625 0.484375q0.25 0.3125 0.390625 0.765625q0.140625 0.4375 0.140625 0.9375q0 1.203125 -0.59375 1.859375q-0.59375 0.65625 -1.421875 0.65625q-0.828125 0 -1.296875 -0.6875l0 0.578125zm-0.015625 -2.375q0 0.84375 0.234375 1.21875q0.375 0.609375 1.0 0.609375q0.53125 0 0.90625 -0.453125q0.375 -0.453125 0.375 -1.34375q0 -0.90625 -0.359375 -1.34375q-0.359375 -0.4375 -0.875 -0.4375q-0.53125 0 -0.90625 0.453125q-0.375 0.453125 -0.375 1.296875zm4.687866 -1.390625l0 -0.90625l0.90625 0l0 0.90625l-0.90625 0zm0 3.765625l0 -0.90625l0.90625 0l0 0.90625l-0.90625 0zm2.3729248 1.78125l0 -6.453125l0.71875 0l0 0.609375q0.25 -0.359375 0.5625 -0.53125q0.328125 -0.171875 0.796875 -0.171875q0.59375 0 1.046875 0.3125q0.453125 0.296875 0.6875 0.859375q0.234375 0.5625 0.234375 1.21875q0 0.71875 -0.265625 1.296875q-0.25 0.578125 -0.734375 0.890625q-0.484375 0.296875 -1.03125 0.296875q-0.390625 0 -0.703125 -0.171875q-0.3125 -0.171875 -0.515625 -0.421875l0 2.265625l-0.796875 0zm0.71875 -4.09375q0 0.90625 0.359375 1.34375q0.375 0.421875 0.890625 0.421875q0.515625 0 0.890625 -0.4375q0.390625 -0.453125 0.390625 -1.390625q0 -0.890625 -0.375 -1.328125q-0.359375 -0.453125 -0.875 -0.453125q-0.5 0 -0.890625 0.484375q-0.390625 0.46875 -0.390625 1.359375zm4.156616 0.921875l0.78125 -0.125q0.0625 0.46875 0.359375 0.71875q0.3125 0.25 0.84375 0.25q0.546875 0 0.8125 -0.21875q0.265625 -0.21875 0.265625 -0.515625q0 -0.28125 -0.234375 -0.421875q-0.171875 -0.109375 -0.8125 -0.28125q-0.875 -0.21875 -1.21875 -0.375q-0.328125 -0.15625 -0.5 -0.4375q-0.171875 -0.28125 -0.171875 -0.625q0 -0.3125 0.140625 -0.578125q0.140625 -0.265625 0.390625 -0.453125q0.1875 -0.125 0.5 -0.21875q0.328125 -0.09375 0.6875 -0.09375q0.546875 0 0.953125 0.15625q0.421875 0.15625 0.625 0.421875q0.203125 0.265625 0.28125 0.71875l-0.78125 0.109375q-0.046875 -0.359375 -0.3125 -0.5625q-0.25 -0.203125 -0.703125 -0.203125q-0.546875 0 -0.78125 0.1875q-0.234375 0.171875 -0.234375 0.421875q0 0.15625 0.09375 0.265625q0.09375 0.140625 0.3125 0.21875q0.109375 0.046875 0.6875 0.203125q0.84375 0.21875 1.171875 0.359375q0.34375 0.140625 0.53125 0.421875q0.1875 0.265625 0.1875 0.671875q0 0.40625 -0.234375 0.75q-0.234375 0.34375 -0.671875 0.546875q-0.421875 0.1875 -0.984375 0.1875q-0.90625 0 -1.390625 -0.375q-0.46875 -0.390625 -0.59375 -1.125zm4.3828125 1.5l1.875 -6.65625l0.625 0l-1.859375 6.65625l-0.640625 0zm4.9197693 -0.8125l0.109375 0.6875q-0.34375 0.078125 -0.59375 0.078125q-0.4375 0 -0.671875 -0.140625q-0.234375 -0.140625 -0.34375 -0.359375q-0.09375 -0.21875 -0.09375 -0.921875l0 -2.6875l-0.578125 0l0 -0.625l0.578125 0l0 -1.15625l0.796875 -0.46875l0 1.625l0.796875 0l0 0.625l-0.796875 0l0 2.71875q0 0.34375 0.03125 0.4375q0.046875 0.09375 0.140625 0.15625q0.09375 0.0625 0.265625 0.0625q0.140625 0 0.359375 -0.03125zm3.9041748 0.125q-0.4375 0.375 -0.84375 0.53125q-0.40625 0.15625 -0.875 0.15625q-0.765625 0 -1.1875 -0.375q-0.40625 -0.375 -0.40625 -0.96875q0 -0.34375 0.15625 -0.625q0.15625 -0.28125 0.40625 -0.453125q0.25 -0.171875 0.5625 -0.265625q0.234375 -0.046875 0.703125 -0.109375q0.96875 -0.109375 1.421875 -0.28125q0 -0.15625 0 -0.203125q0 -0.484375 -0.21875 -0.671875q-0.3125 -0.28125 -0.90625 -0.28125q-0.5625 0 -0.828125 0.203125q-0.265625 0.1875 -0.390625 0.6875l-0.765625 -0.09375q0.09375 -0.5 0.328125 -0.796875q0.25 -0.3125 0.703125 -0.46875q0.46875 -0.171875 1.0625 -0.171875q0.609375 0 0.96875 0.140625q0.375 0.140625 0.546875 0.359375q0.1875 0.203125 0.25 0.53125q0.046875 0.203125 0.046875 0.71875l0 1.0625q0 1.09375 0.046875 1.390625q0.046875 0.296875 0.203125 0.5625l-0.828125 0q-0.125 -0.25 -0.15625 -0.578125zm-0.0625 -1.765625q-0.4375 0.171875 -1.296875 0.296875q-0.484375 0.078125 -0.6875 0.171875q-0.203125 0.078125 -0.3125 0.25q-0.109375 0.171875 -0.109375 0.375q0 0.3125 0.234375 0.53125q0.234375 0.203125 0.703125 0.203125q0.453125 0 0.8125 -0.203125q0.359375 -0.203125 0.53125 -0.546875q0.125 -0.265625 0.125 -0.78125l0 -0.296875zm1.8909912 0.953125l0.78125 -0.125q0.0625 0.46875 0.359375 0.71875q0.3125 0.25 0.84375 0.25q0.546875 0 0.8125 -0.21875q0.265625 -0.21875 0.265625 -0.515625q0 -0.28125 -0.234375 -0.421875q-0.171875 -0.109375 -0.8125 -0.28125q-0.875 -0.21875 -1.21875 -0.375q-0.328125 -0.15625 -0.5 -0.4375q-0.171875 -0.28125 -0.171875 -0.625q0 -0.3125 0.140625 -0.578125q0.140625 -0.265625 0.390625 -0.453125q0.1875 -0.125 0.5 -0.21875q0.328125 -0.09375 0.6875 -0.09375q0.546875 0 0.953125 0.15625q0.421875 0.15625 0.625 0.421875q0.203125 0.265625 0.28125 0.71875l-0.78125 0.109375q-0.046875 -0.359375 -0.3125 -0.5625q-0.25 -0.203125 -0.703125 -0.203125q-0.546875 0 -0.78125 0.1875q-0.234375 0.171875 -0.234375 0.421875q0 0.15625 0.09375 0.265625q0.09375 0.140625 0.3125 0.21875q0.109375 0.046875 0.6875 0.203125q0.84375 0.21875 1.171875 0.359375q0.34375 0.140625 0.53125 0.421875q0.1875 0.265625 0.1875 0.671875q0 0.40625 -0.234375 0.75q-0.234375 0.34375 -0.671875 0.546875q-0.421875 0.1875 -0.984375 0.1875q-0.90625 0 -1.390625 -0.375q-0.46875 -0.390625 -0.59375 -1.125zm4.9765625 1.390625l0 -6.4375l0.796875 0l0 3.671875l1.875 -1.90625l1.015625 0l-1.78125 1.734375l1.96875 2.9375l-0.984375 0l-1.53125 -2.390625l-0.5625 0.546875l0 1.84375l-0.796875 0zm4.8828125 -3.765625l0 -0.90625l0.90625 0l0 0.90625l-0.90625 0zm0 3.765625l0 -0.90625l0.90625 0l0 0.90625l-0.90625 0zm2.1541443 -3.171875q0 -1.140625 0.234375 -1.84375q0.234375 -0.703125 0.6875 -1.078125q0.46875 -0.375 1.171875 -0.375q0.53125 0 0.921875 0.21875q0.390625 0.203125 0.640625 0.59375q0.25 0.390625 0.390625 0.953125q0.15625 0.5625 0.15625 1.53125q0 1.125 -0.234375 1.828125q-0.234375 0.6875 -0.703125 1.078125q-0.453125 0.375 -1.171875 0.375q-0.921875 0 -1.453125 -0.671875q-0.640625 -0.796875 -0.640625 -2.609375zm0.8125 0q0 1.578125 0.359375 2.109375q0.375 0.515625 0.921875 0.515625q0.546875 0 0.921875 -0.515625q0.375 -0.53125 0.375 -2.109375q0 -1.59375 -0.375 -2.109375q-0.375 -0.53125 -0.921875 -0.53125q-0.546875 0 -0.875 0.453125q-0.40625 0.59375 -0.40625 2.1875z" fill-rule="nonzero"></path></g></svg>

